<svg width="168" height="132" viewBox="0 0 168 132" fill="none" xmlns="http://www.w3.org/2000/svg">
<path d="M117.748 107.494C117.748 107.494 121.908 108.384 124.879 110.233C125.229 112.084 125.559 113.883 125.879 115.563C124.069 113.873 120.738 112.723 120.738 112.723L118.439 108.693L117.748 107.494Z" fill="#F25900"/>
<path d="M109.949 111.144L106.629 113.044L106.6 113.023C107.79 111.244 108.659 108.883 108.659 108.883L109.949 111.144Z" fill="#F25900"/>
<path d="M58.6481 108.884C58.6481 108.884 59.4981 111.234 60.7091 113.014L60.6681 113.044L57.3501 111.154L58.6481 108.884Z" fill="#F25900"/>
<path d="M48.869 108.693L46.568 112.723C46.568 112.723 43.248 113.873 41.439 115.553C41.748 113.873 42.087 112.073 42.429 110.233C45.388 108.383 49.558 107.494 49.558 107.494L48.869 108.693Z" fill="#F25900"/>
<path d="M116.998 58.3242C118.039 59.3442 119.109 60.5442 119.969 61.8532C119.559 63.0842 119.02 64.2132 118.379 65.2732C115.149 66.0032 112.609 68.5232 111.838 71.7332H111.828C110.619 72.5042 109.338 73.1832 108.019 73.7842C97.9679 78.3342 85.4489 78.2732 83.6479 78.2732C81.8589 78.2732 69.3279 78.3342 59.2889 73.7842C57.9689 73.1832 56.6889 72.5042 55.4779 71.7332H55.4679C54.6979 68.5232 52.1569 66.0042 48.9289 65.2732C48.2879 64.2132 47.7469 63.0842 47.3369 61.8532C48.1979 60.5432 49.2689 59.3432 50.3079 58.3242L50.3179 58.3342C62.5389 65.2442 74.8979 68.3442 83.6479 68.3442C92.4079 68.3442 104.769 65.2442 116.988 58.3342L116.998 58.3242Z" fill="#31363D"/>
<path d="M49.5587 107.494C49.5587 107.494 45.3887 108.384 42.4297 110.233C43.4497 104.754 44.5297 98.9139 45.2987 94.7539C45.9977 95.0439 46.8187 95.2439 47.6987 95.3439L46.5677 97.3139L49.8877 99.2049L48.8777 100.975L46.5667 105.015L49.8867 106.915L49.5587 107.494Z" fill="#141517"/>
<path d="M100.738 114.733C102.199 114.023 104.109 112.414 104.699 111.983C105.279 111.544 105.679 110.773 105.549 109.273C105.498 108.643 105.408 107.013 105.319 105.334H105.329C105.95 104.324 106.63 103.034 107.29 101.684C107.37 101.524 107.45 101.365 107.53 101.205V101.194C107.71 100.835 107.88 100.465 108.05 100.104L109.95 103.434L106.63 105.334L108.659 108.884C108.659 108.884 107.79 111.244 106.6 113.024C106.579 113.045 106.569 113.075 106.549 113.094C105.088 115.204 100.838 119.544 97.408 120.944V120.955C95.138 120.205 92.719 119.575 90.668 119.345C91.488 119.195 92.238 119.025 92.898 118.825C92.968 118.805 93.039 118.785 93.109 118.765C95.349 118.075 98.248 114.605 98.248 114.605L98.299 114.545C98.828 114.964 99.52 115.314 100.738 114.733Z" fill="#DB8660"/>
<path d="M140.648 87.4828C134.878 88.6428 128.988 89.7629 125.978 90.1729C125.369 89.2929 126.039 87.3129 128.119 86.8329C128.129 86.8229 128.139 86.8228 128.148 86.8228C132.709 86.2428 136.509 85.4629 139.558 84.6729L140.648 87.4728V87.4828Z" fill="#141517"/>
<path d="M54.6392 94.2139C55.1992 93.8839 55.5782 93.4839 55.7092 93.0239C55.9182 93.1439 56.1292 93.2639 56.3282 93.3749C56.3282 93.3749 56.3282 93.3749 56.3382 93.3849C56.3792 93.4949 56.7481 94.4149 57.3091 95.7249L54.6392 94.2139Z" fill="#BD4D3C"/>
<path d="M69.898 120.954C72.168 120.204 74.588 119.574 76.638 119.344H76.648C76.849 119.384 77.068 119.414 77.289 119.454C76.689 121.834 74.639 125.154 74.639 125.154C71.229 126.324 64.239 130.733 63.19 131.353C62.149 131.983 61.26 131.503 60.879 130.353C60.51 129.213 60.209 127.494 60.338 126.593C60.459 125.683 61.168 124.643 62.209 124.023C62.859 123.634 66.189 122.154 69.898 120.954Z" fill="#BD4D3C"/>
<path d="M39.9487 83.4941C42.3177 83.7841 44.8077 83.9332 47.3377 83.8842C47.2477 84.2142 47.1287 84.6041 46.9787 85.0641C46.8887 85.3251 46.7987 85.5641 46.6997 85.7741C44.1797 85.7141 41.8497 84.8741 39.9487 83.4941Z" fill="#FF7B00"/>
<path d="M45.7889 92.1139C45.6089 93.0739 45.0289 94.6829 41.8589 94.4329C38.2689 94.1539 16.4879 89.8028 14.1189 89.2928C11.7599 88.7718 8.86892 89.4128 8.15792 92.9528C7.44892 96.4818 5.50992 113.133 5.24792 114.982C4.98792 116.833 5.43894 119.882 9.38894 120.942C13.3499 122.012 25.6099 124.982 39.7799 124.253C39.6899 124.703 39.6199 125.053 39.5689 125.273C38.8189 128.733 35.6099 129.343 34.6489 129.273C16.4399 128.023 10.5299 126.393 5.43994 125.023C0.359938 123.643 -0.22008 119.733 0.10992 117.353C0.43992 114.983 2.93992 93.5629 3.85992 89.0229C4.77992 84.4829 8.47893 83.6428 11.5299 84.3128C13.0589 84.6538 19.7799 86.0928 26.6489 87.4728C32.4299 88.6428 38.3189 89.7628 41.3289 90.1728C41.8499 90.2428 42.2799 90.2928 42.6099 90.3128C45.0789 90.4938 46.1299 89.8728 46.3379 89.0928C46.3089 89.2728 46.1089 90.3839 45.7889 92.1139Z" fill="#FFAA00"/>
<path d="M82.8789 63.564C74.0099 63.564 64.0489 60.415 54.4879 54.944C51.4589 53.215 48.4589 51.245 45.5489 49.075V49.064C30.0289 37.464 16.9879 19.964 13.6099 0.644043C13.6099 0.644043 13.6099 0.655039 13.6199 0.665039C13.9309 1.50504 24.0499 28.415 56.7799 45.314C59.9779 54.184 65.8499 61.634 82.8789 63.564Z" fill="#FF7B00"/>
<path d="M50.8588 81.6143C50.8588 81.6143 49.8178 83.4432 49.6088 85.3532C50.4288 88.6732 52.8488 91.2733 55.7088 93.0233C55.5778 93.4833 55.1988 93.8833 54.6388 94.2133C53.0778 95.1733 50.1798 95.6232 47.6988 95.3432C46.8178 95.2432 45.9978 95.0432 45.2988 94.7532C45.4788 93.7732 45.6488 92.8833 45.7888 92.1133C46.1088 90.3833 46.3088 89.2722 46.3378 89.0932C46.3498 89.0832 46.3498 89.0732 46.3498 89.0732C46.5298 88.4132 46.0998 87.6332 45.4498 87.1632C45.9498 86.9332 46.3598 86.4822 46.6998 85.7722C46.7998 85.5622 46.8898 85.3233 46.9788 85.0623C47.1288 84.6023 47.2488 84.2122 47.3378 83.8822C47.5878 82.9422 47.6188 82.4922 47.6188 82.4922C48.7788 82.4142 49.8688 82.1033 50.8588 81.6143Z" fill="#FF7B00"/>
<path d="M27.7379 84.6738C30.7889 85.4538 34.5879 86.2438 39.1579 86.8238C39.1679 86.8238 39.1789 86.8238 39.1889 86.8338C41.2589 87.3128 41.9289 89.2938 41.3279 90.1738C38.3179 89.7638 32.4299 88.6438 26.6479 87.4738L27.7379 84.6738Z" fill="#141517"/>
<path d="M167.199 117.353C167.529 119.733 166.949 123.643 161.859 125.023C156.779 126.393 150.859 128.023 132.658 129.273C131.689 129.343 128.488 128.733 127.738 125.273C127.689 125.053 127.619 124.704 127.529 124.253C141.699 124.982 153.959 122.013 157.908 120.942C161.869 119.882 162.318 116.833 162.058 114.982C161.798 113.132 159.859 96.4818 159.148 92.9528C158.429 89.4128 155.548 88.7718 153.179 89.2928C150.818 89.8028 129.038 94.1528 125.449 94.4328C122.279 94.6828 121.699 93.0738 121.519 92.1138C121.199 90.3838 120.997 89.2728 120.968 89.0938C121.179 89.8738 122.228 90.4938 124.698 90.3138C125.028 90.2938 125.458 90.2448 125.977 90.1738C128.987 89.7638 134.877 88.6438 140.647 87.4838C147.528 86.0938 154.247 84.6548 155.778 84.3138C158.817 83.6438 162.528 84.4838 163.448 89.0238C164.359 93.5638 166.859 114.983 167.199 117.353Z" fill="#FFAA00"/>
<path d="M90.668 119.344C92.719 119.574 95.139 120.204 97.408 120.954C101.129 122.154 104.449 123.634 105.088 124.023C106.139 124.643 106.838 125.683 106.969 126.593C107.088 127.493 106.799 129.213 106.43 130.353C106.049 131.503 105.159 131.983 104.11 131.353C103.069 130.733 96.079 126.324 92.669 125.154C92.669 125.154 90.61 121.824 90.021 119.443C90.24 119.414 90.451 119.383 90.66 119.343H90.668V119.344Z" fill="#BD4D3C"/>
<path d="M83.6481 63.6439C83.9081 63.6149 84.1681 63.5938 84.4291 63.5538V63.5638C93.2981 63.5638 103.259 60.4148 112.818 54.9438C112.818 54.9438 114.859 56.2549 116.998 58.3249L116.988 58.3348C104.769 65.2448 92.4081 68.3448 83.6481 68.3448C74.8981 68.3448 62.5391 65.2448 50.3181 58.3348L50.3081 58.3249C52.4491 56.2549 54.4881 54.9438 54.4881 54.9438C64.0491 60.4148 74.0101 63.5638 82.8791 63.5638C83.1291 63.5938 83.3891 63.6139 83.6481 63.6439Z" fill="#25272B"/>
<path d="M58.6479 108.884L57.3499 111.154L49.8979 106.894L49.8889 106.914L46.5679 105.014L48.8789 100.974L48.8979 100.983L57.3379 103.464L57.3499 103.443L60.6679 105.334L58.6479 108.884Z" fill="#DFE1F2"/>
<path d="M40.1189 59.8941C42.4079 60.7541 44.7889 61.4551 47.0389 61.8041C47.0189 61.8041 46.9979 61.8041 46.9779 61.8041C44.3979 61.8041 41.9979 62.6241 40.0479 64.0141C35.1479 62.4051 30.1889 59.8651 29.1379 59.0541C27.7179 57.9641 26.2469 58.1551 25.4879 59.3341C24.7279 60.5231 20.129 74.0541 19.838 75.3841C19.559 76.7141 20.5099 78.1341 22.1189 78.7741C23.3979 79.2851 30.7789 82.3751 39.9489 83.4951C41.8489 84.8751 44.1789 85.7151 46.6989 85.7741C46.3589 86.4841 45.9489 86.9341 45.4489 87.1651C45.0989 87.3351 44.7089 87.3941 44.2789 87.3541C42.4879 87.2141 40.7889 87.0351 39.1889 86.8351C39.1789 86.8251 39.1679 86.8251 39.1579 86.8251C34.5879 86.2451 30.7889 85.4551 27.7379 84.6751C22.8789 83.4151 19.9179 82.1551 18.7789 81.6951C16.6479 80.8551 15.3979 78.9851 15.7789 77.2351C16.1479 75.4851 22.5289 55.8551 23.5289 54.2961C24.5289 52.7351 26.459 52.4851 28.338 53.9161C29.648 54.9141 34.6089 57.8441 40.1189 59.8941Z" fill="#FFAA00"/>
<path d="M60.6678 97.6339L59.2599 100.104L57.3499 103.444L49.8988 99.1839L49.8889 99.2049L46.5688 97.3139L47.6999 95.3439C50.1799 95.6239 53.0789 95.1739 54.6399 94.2139L57.3098 95.7239L60.6678 97.6339Z" fill="#DFE1F2"/>
<path d="M49.8889 99.2041L57.3379 103.464L48.8979 100.983L48.8789 100.974L49.8889 99.2041Z" fill="#B3B4C2"/>
<path d="M119.969 61.853C119.11 60.543 118.039 59.343 116.998 58.324C114.859 56.254 112.818 54.943 112.818 54.943C115.859 53.204 118.849 51.244 121.759 49.063C123.689 52.313 125.509 55.914 127.189 59.893C124.908 60.753 122.529 61.454 120.269 61.803C120.168 61.824 120.068 61.844 119.969 61.853Z" fill="#141517"/>
<path d="M60.7091 113.014C59.4981 111.234 58.6481 108.884 58.6481 108.884L60.6681 105.334L57.3501 103.443L59.2601 100.103C59.4301 100.463 59.6001 100.834 59.7801 101.193V101.204C59.8601 101.364 59.9401 101.523 60.0201 101.683C60.6801 103.034 61.3501 104.324 61.9791 105.333C61.8991 107.013 61.8091 108.643 61.7601 109.272C61.6291 110.772 62.0301 111.543 62.6101 111.982C63.2001 112.413 65.1101 114.022 66.5691 114.732C67.7901 115.312 68.4791 114.962 69.0101 114.543L69.0591 114.603C69.0591 114.603 71.9501 118.074 74.1901 118.763C74.2601 118.784 74.3291 118.803 74.4091 118.833C75.0691 119.022 75.8191 119.203 76.6391 119.343C74.5881 119.573 72.1681 120.203 69.8991 120.953V120.942C66.4601 119.543 62.2101 115.203 60.7601 113.092C60.7381 113.064 60.7191 113.044 60.7091 113.014Z" fill="#DB8660"/>
<path d="M57.3179 118.874L57.3089 118.884L48.8979 116.443L48.8589 116.424L49.8889 114.624L57.3179 118.874Z" fill="#B3B4C2"/>
<path d="M49.8892 106.914L57.2992 111.154L48.8982 108.714L48.8691 108.693L49.5591 107.494L49.8892 106.914Z" fill="#B3B4C2"/>
<path d="M162.059 114.983C162.319 116.834 161.869 119.883 157.909 120.943C153.96 122.013 141.7 124.983 127.53 124.254C127.2 122.554 126.589 119.364 125.88 115.564C125.56 113.884 125.23 112.085 124.88 110.234C123.86 104.755 122.78 98.9151 122.011 94.7551C121.829 93.7751 121.659 92.8851 121.521 92.1151C121.701 93.0751 122.281 94.6841 125.451 94.4341C129.041 94.1551 150.82 89.8041 153.181 89.2941C155.55 88.7731 158.431 89.4141 159.15 92.9541C159.859 96.4831 161.799 113.134 162.059 114.983ZM154.959 107.494C154.959 100.784 149.519 95.3441 142.809 95.3441C136.1 95.3441 130.659 100.784 130.659 107.494C130.659 114.204 136.1 119.643 142.809 119.643C149.52 119.644 154.959 114.204 154.959 107.494Z" fill="#31363D"/>
<path d="M153.689 0.664062C153.699 0.654063 153.699 0.643066 153.699 0.643066C150.328 19.9631 137.279 37.454 121.76 49.063C118.85 51.244 115.86 53.2041 112.819 54.9431C103.26 60.4141 93.2987 63.563 84.4297 63.563V63.5531C101.459 61.6331 107.328 54.183 110.53 45.313C143.26 28.414 153.379 1.50406 153.689 0.664062Z" fill="#FF7B00"/>
<path d="M142.809 95.3442C149.52 95.3442 154.959 100.784 154.959 107.494C154.959 114.204 149.519 119.643 142.809 119.643C136.1 119.643 130.659 114.204 130.659 107.494C130.658 100.784 136.1 95.3442 142.809 95.3442ZM152.088 107.494C152.088 102.364 147.94 98.2142 142.809 98.2142C137.68 98.2142 133.53 102.364 133.53 107.494C133.53 112.624 137.68 116.773 142.809 116.773C147.939 116.773 152.088 112.624 152.088 107.494Z" fill="#FFAA00"/>
<path d="M127.189 59.8941C132.699 57.8441 137.658 54.9151 138.968 53.9151C140.837 52.4841 142.779 52.7341 143.779 54.2951C144.779 55.8551 151.148 75.4841 151.529 77.2341C151.908 78.9841 150.648 80.8541 148.529 81.6941C147.379 82.1551 144.418 83.4151 139.558 84.6741C136.509 85.4641 132.708 86.2441 128.148 86.8241C128.138 86.8241 128.128 86.8241 128.119 86.8341C126.519 87.0341 124.818 87.2141 123.029 87.3531C122.599 87.3931 122.209 87.3341 121.859 87.1641C121.359 86.9341 120.949 86.4831 120.609 85.7731C123.129 85.7131 125.459 84.8741 127.359 83.4941C136.529 82.3741 143.898 79.2841 145.189 78.7731C146.798 78.1331 147.748 76.7131 147.459 75.3831C147.18 74.0531 142.578 60.5231 141.818 59.3331C141.058 58.1531 139.588 57.9631 138.168 59.0531C137.109 59.8531 132.158 62.3931 127.26 64.0131C125.299 62.6231 122.899 61.8031 120.319 61.8031C120.299 61.8031 120.29 61.8031 120.27 61.8031C122.529 61.4541 124.908 60.7541 127.189 59.8941Z" fill="#FFAA00"/>
<path d="M142.809 98.2139C147.94 98.2139 152.088 102.364 152.088 107.494C152.088 112.624 147.94 116.773 142.809 116.773C137.68 116.773 133.53 112.624 133.53 107.494C133.529 102.364 137.68 98.2139 142.809 98.2139ZM144.939 109.624L148.837 107.494L144.939 105.364L142.808 101.464L140.679 105.364L136.779 107.494L140.679 109.624L142.808 113.523L144.939 109.624Z" fill="#31363D"/>
<path d="M148.838 107.494L144.939 109.624L142.809 113.523L140.68 109.624L136.779 107.494L140.68 105.364L142.809 101.464L144.939 105.364L148.838 107.494Z" fill="#FFAA00"/>
<path d="M147.459 75.384C147.748 76.714 146.799 78.134 145.189 78.774C143.898 79.285 136.529 82.375 127.359 83.495C130.359 81.314 132.308 77.774 132.308 73.785C132.308 69.745 130.308 66.184 127.259 64.014C132.157 62.394 137.109 59.854 138.167 59.054C139.587 57.964 141.058 58.155 141.817 59.334C142.578 60.523 147.18 74.054 147.459 75.384Z" fill="#31363D"/>
<path d="M153.689 0.664062C153.378 1.50406 143.259 28.414 110.529 45.313C106.699 42.233 98.6087 41.3131 94.2787 43.4831C93.4587 41.0231 92.3377 38.7731 91.1377 36.8031C96.8487 35.5331 102.259 33.813 107.337 31.813C135.398 20.784 153.168 1.23306 153.689 0.664062Z" fill="#FFAA00"/>
<path d="M132.309 73.7842C132.309 77.7732 130.36 81.3132 127.36 83.4942C124.989 83.7842 122.499 83.9332 119.969 83.8842C119.719 82.9442 119.69 82.4942 119.69 82.4942C119.899 82.5142 120.11 82.5232 120.319 82.5232C125.149 82.5232 129.059 78.6142 129.059 73.7842C129.059 69.6342 126.159 66.1642 122.27 65.2732C123.809 65.0532 125.53 64.5932 127.26 64.0132C130.309 66.1842 132.309 69.7442 132.309 73.7842Z" fill="#25272B"/>
<path d="M122.27 65.2732C126.159 66.1642 129.059 69.6332 129.059 73.7842C129.059 78.6142 125.149 82.5232 120.319 82.5232C120.11 82.5232 119.899 82.5132 119.69 82.4942C118.53 82.4142 117.43 82.1032 116.44 81.6142C115.78 81.2842 115.18 80.8842 114.629 80.4042C112.77 78.8032 111.588 76.4332 111.588 73.7842C111.588 73.0742 111.668 72.3932 111.838 71.7332C112.609 68.5232 115.148 66.0042 118.379 65.2732C118.998 65.1332 119.649 65.0532 120.319 65.0532C120.988 65.0542 121.639 65.1342 122.27 65.2732ZM125.77 73.7842C125.77 70.7842 123.329 68.3442 120.319 68.3442C117.319 68.3442 114.879 70.7842 114.879 73.7842C114.879 76.7942 117.319 79.2332 120.319 79.2332C123.328 79.2332 125.77 76.7942 125.77 73.7842Z" fill="#FFAA00"/>
<path d="M128.119 86.834C126.039 87.313 125.369 89.294 125.978 90.174C125.459 90.244 125.029 90.294 124.699 90.314C122.228 90.495 121.179 89.874 120.969 89.094C120.959 89.094 120.959 89.084 120.959 89.074C120.779 88.414 121.209 87.634 121.859 87.164C122.209 87.334 122.599 87.393 123.029 87.353C124.818 87.214 126.52 87.034 128.119 86.834Z" fill="#F25900"/>
<path d="M120.318 68.3442C123.328 68.3442 125.769 70.7842 125.769 73.7842C125.769 76.7942 123.328 79.2332 120.318 79.2332C117.318 79.2332 114.878 76.7942 114.878 73.7842C114.879 70.7842 117.318 68.3442 120.318 68.3442Z" fill="#FF7B00"/>
<path d="M122.01 94.7539C122.78 98.9139 123.86 104.754 124.879 110.233C121.908 108.383 117.748 107.494 117.748 107.494L117.418 106.914L120.738 105.014L117.418 99.2039L120.738 97.3129L119.609 95.3429C120.488 95.2439 121.309 95.0439 122.01 94.7539Z" fill="#141517"/>
<path d="M127.26 64.0142C125.53 64.5942 123.809 65.0542 122.27 65.2742C121.639 65.1342 120.989 65.0542 120.319 65.0542C119.649 65.0542 118.999 65.1342 118.379 65.2742C119.02 64.2142 119.559 63.0852 119.969 61.8542C120.069 61.8442 120.168 61.8252 120.27 61.8042C120.29 61.8042 120.299 61.8042 120.319 61.8042C122.898 61.8042 125.299 62.6242 127.26 64.0142Z" fill="#FF7B00"/>
<path d="M119.969 83.8842C122.498 83.9342 124.989 83.7841 127.36 83.4941C125.46 84.8741 123.13 85.7142 120.61 85.7732C120.499 85.5632 120.409 85.3241 120.319 85.0631C120.168 84.6141 120.049 84.2142 119.969 83.8842Z" fill="#FF7B00"/>
<path d="M119.609 95.3442C117.119 95.6242 114.218 95.1643 112.658 94.2043C112.109 93.8743 111.728 93.4743 111.599 93.0233C114.458 91.2733 116.878 88.6732 117.699 85.3532C117.488 83.4432 116.439 81.6143 116.439 81.6143C117.429 82.1033 118.529 82.4142 119.689 82.4942C119.689 82.4942 119.718 82.9432 119.968 83.8842C120.048 84.2142 120.167 84.6142 120.318 85.0642C120.408 85.3252 120.498 85.5642 120.609 85.7742C120.949 86.4842 121.359 86.9343 121.859 87.1653C121.209 87.6353 120.779 88.4153 120.959 89.0753C120.959 89.0853 120.959 89.0952 120.969 89.0952C120.998 89.2752 121.199 90.3852 121.52 92.1152C121.659 92.8852 121.829 93.7742 122.01 94.7552C121.309 95.0442 120.488 95.2442 119.609 95.3442Z" fill="#FF7B00"/>
<path d="M119.609 95.3441L120.738 97.3141L117.418 99.2051L117.408 99.1841L109.998 103.414L109.949 103.434L108.049 100.104L106.629 97.6341L109.998 95.7241L112.658 94.2141V94.2041C114.219 95.1641 117.119 95.6241 119.609 95.3441Z" fill="#DFE1F2"/>
<path d="M110.119 103.384L117.418 99.2041L120.738 105.014L117.418 106.914L117.408 106.894L109.949 111.144L108.658 108.884L106.629 105.334L109.949 103.434L109.969 103.464L110.119 103.384Z" fill="#DFE1F2"/>
<path d="M118.439 108.693L120.738 112.724L117.418 114.624L117.408 114.603L109.949 118.853L106.629 113.044L109.949 111.144L109.969 111.174L109.998 111.154H110.01L118.408 108.714L118.439 108.693Z" fill="#DFE1F2"/>
<path d="M118.449 116.424L120.738 120.434L109.969 126.594L106.629 120.754L109.949 118.853L109.969 118.884L109.988 118.874L109.998 118.884L118.408 116.443L118.449 116.424Z" fill="#DFE1F2"/>
<path d="M117.418 114.624L118.449 116.424L118.408 116.443L109.998 118.884L109.988 118.874L117.418 114.624Z" fill="#B3B4C2"/>
<path d="M117.748 107.494L118.439 108.693L118.408 108.714L110.01 111.154L117.418 106.914L117.748 107.494Z" fill="#B3B4C2"/>
<path d="M117.748 99.7841L118.439 100.983L118.408 101.004L110.01 103.444L117.418 99.2041L117.748 99.7841Z" fill="#B3B4C2"/>
<path d="M112.658 94.2039V94.2139L109.998 95.7239C110.549 94.4139 110.918 93.4949 110.959 93.3839C110.969 93.3739 110.969 93.3739 110.969 93.3739C111.18 93.2639 111.389 93.1439 111.6 93.0229C111.728 93.4739 112.109 93.8739 112.658 94.2039Z" fill="#BD4D3C"/>
<path d="M105.088 100.494C105.088 100.494 106.479 102.723 107.289 101.683C106.629 103.034 105.949 104.324 105.328 105.333H105.318C105.209 102.964 105.088 100.494 105.088 100.494Z" fill="#850616"/>
<path d="M110.529 45.3139C110.529 45.3139 98.2691 48.3739 90.0991 50.9549L94.2791 43.4839C98.6091 41.3139 106.699 42.2329 110.529 45.3139Z" fill="#FF7B00"/>
<path d="M90.0998 50.954C98.2698 48.374 110.53 45.313 110.53 45.313C107.329 54.183 101.46 61.633 84.4298 63.553C84.1678 63.593 83.9088 63.614 83.6488 63.643C83.3888 63.614 83.1288 63.593 82.8788 63.563C65.8498 61.633 59.9788 54.183 56.7788 45.313C56.7788 45.313 69.0388 48.373 77.2088 50.954C77.2088 50.954 78.6088 42.563 83.6478 27.813C88.6988 42.564 90.0998 50.954 90.0998 50.954Z" fill="#FFAA00"/>
<path d="M83.648 21.9141C89.759 21.9141 98.578 24.574 107.338 31.813C102.26 33.813 96.85 35.5341 91.139 36.8031C87.739 31.2231 83.649 27.813 83.649 27.813C83.649 27.813 79.569 31.2231 76.169 36.8031C70.46 35.5231 65.04 33.813 59.96 31.813C68.719 24.574 77.549 21.9141 83.648 21.9141Z" fill="#31363D"/>
<path d="M94.2789 43.483L90.0989 50.954C90.0989 50.954 88.6989 42.563 83.6479 27.813C83.6479 27.813 87.7379 31.223 91.1379 36.803C92.3379 38.773 93.4589 41.023 94.2789 43.483Z" fill="#FFC85C"/>
<path d="M92.6679 125.154C92.6679 125.154 92.5589 125.574 92.2789 125.904C91.9979 126.233 91.058 127.214 89.808 127.773C88.648 128.303 87.5089 127.843 86.9679 127.193C86.9289 127.143 86.8879 127.093 86.8589 127.044C86.3689 126.324 83.6479 119.884 83.6479 119.884C86.0389 119.884 88.1279 119.734 89.8979 119.464C89.9389 119.464 89.978 119.454 90.019 119.443C90.609 121.824 92.6679 125.154 92.6679 125.154Z" fill="#DB8660"/>
<path d="M86.8591 127.044C86.8881 127.094 86.9291 127.144 86.9681 127.193C85.9481 128.683 83.6481 128.574 83.6481 128.574C83.6481 128.574 81.3591 128.683 80.3281 127.193C80.3791 127.143 80.4181 127.093 80.4491 127.044C80.9291 126.324 83.6481 119.884 83.6481 119.884C83.6481 119.884 86.3691 126.324 86.8591 127.044Z" fill="#BD4D3C"/>
<path d="M83.6477 119.884C83.6477 119.884 80.9287 126.324 80.4487 127.044C80.4177 127.094 80.3787 127.144 80.3277 127.193C79.7887 127.843 78.6577 128.303 77.4977 127.773C76.2477 127.213 75.3087 126.233 75.0287 125.904C74.7477 125.574 74.6377 125.154 74.6377 125.154C74.6377 125.154 76.6887 121.834 77.2877 119.454C77.3267 119.464 77.3677 119.464 77.4067 119.464C79.1797 119.733 81.2697 119.884 83.6477 119.884Z" fill="#DB8660"/>
<path d="M76.1678 36.804C79.5678 31.224 83.6478 27.814 83.6478 27.814C78.6088 42.564 77.2088 50.955 77.2088 50.955L73.0288 43.484C73.8498 41.023 74.9688 38.773 76.1678 36.804Z" fill="#FFC85C"/>
<path d="M73.0288 43.4832L77.2088 50.9542C69.0388 48.3742 56.7788 45.3132 56.7788 45.3132C60.6088 42.2332 68.6888 41.3142 73.0288 43.4832Z" fill="#FF7B00"/>
<path d="M76.1682 36.804C74.9692 38.774 73.8501 41.024 73.0291 43.484C68.6891 41.314 60.6091 42.234 56.7791 45.314C24.0491 28.415 13.9291 1.50404 13.6191 0.665039C14.1391 1.23404 31.9082 20.774 59.9592 31.814C65.0392 33.814 70.4592 35.523 76.1682 36.804Z" fill="#FFAA00"/>
<path d="M62.209 100.494C62.209 100.494 62.1 102.964 61.978 105.334C61.349 104.324 60.679 103.034 60.019 101.684C60.828 102.724 62.209 100.494 62.209 100.494Z" fill="#850616"/>
<path d="M60.6679 113.044L57.3499 118.864L49.8979 114.603L49.8889 114.624L46.5679 112.724L48.8689 108.693L48.8979 108.714L57.2989 111.154H57.3089L57.3379 111.174L57.3499 111.154L60.6679 113.044Z" fill="#DFE1F2"/>
<path d="M60.6679 120.754L57.3379 126.594L46.5679 120.434L48.8589 116.424L48.8979 116.443L57.3089 118.884L57.3179 118.874L57.3379 118.884L57.3499 118.864L60.6679 120.754Z" fill="#DFE1F2"/>
<path d="M55.469 71.7332C55.639 72.3932 55.719 73.0742 55.719 73.7842C55.719 76.4332 54.539 78.8042 52.68 80.4042C52.129 80.8832 51.52 81.2942 50.86 81.6142C49.87 82.1032 48.78 82.4142 47.62 82.4942C47.409 82.5142 47.2 82.5232 46.979 82.5232C42.159 82.5232 38.249 78.6142 38.249 73.7842C38.249 69.6342 41.149 66.1642 45.03 65.2732C45.659 65.1332 46.309 65.0532 46.979 65.0532C47.649 65.0532 48.299 65.1332 48.93 65.2732C52.158 66.0042 54.699 68.5232 55.469 71.7332ZM52.43 73.7842C52.43 70.7842 49.989 68.3442 46.979 68.3442C43.979 68.3442 41.54 70.7842 41.54 73.7842C41.54 76.7942 43.979 79.2332 46.979 79.2332C49.988 79.2332 52.43 76.7942 52.43 73.7842Z" fill="#FFAA00"/>
<path d="M47.0392 61.8042C44.7892 61.4542 42.4081 60.7542 40.1191 59.8942C41.7891 55.9242 43.6192 52.3252 45.5492 49.0752C48.4592 51.2452 51.4592 53.2152 54.4882 54.9442C54.4882 54.9442 52.4492 56.2552 50.3082 58.3252C49.2692 59.3452 48.1992 60.5452 47.3372 61.8542C47.2382 61.8442 47.1392 61.8242 47.0392 61.8042Z" fill="#141517"/>
<path d="M46.9781 68.3442C49.9881 68.3442 52.429 70.7842 52.429 73.7842C52.429 76.7942 49.9881 79.2332 46.9781 79.2332C43.9781 79.2332 41.5391 76.7942 41.5391 73.7842C41.5391 70.7842 43.9781 68.3442 46.9781 68.3442Z" fill="#FF7B00"/>
<path d="M47.3378 61.8532C47.7478 63.0842 48.2888 64.2132 48.9298 65.2732C48.2988 65.1332 47.6488 65.0532 46.9788 65.0532C46.3088 65.0532 45.6588 65.1332 45.0298 65.2732C43.4988 65.0532 41.7798 64.5932 40.0498 64.0132C41.9988 62.6232 44.3998 61.8032 46.9798 61.8032C46.9998 61.8032 47.0208 61.8032 47.0408 61.8032C47.1388 61.8242 47.2378 61.8442 47.3378 61.8532Z" fill="#FF7B00"/>
<path d="M47.619 82.4942C47.619 82.4942 47.5881 82.9432 47.3381 83.8842C44.8091 83.9342 42.3181 83.7842 39.9491 83.4942C36.9491 81.3132 34.998 77.7732 34.998 73.7842C34.998 69.7442 36.9881 66.1832 40.0491 64.0132C41.7791 64.5932 43.4981 65.0532 45.0291 65.2732C41.1481 66.1642 38.248 69.6332 38.248 73.7842C38.248 78.6142 42.1581 82.5232 46.9781 82.5232C47.1991 82.5232 47.408 82.5142 47.619 82.4942Z" fill="#25272B"/>
<path d="M45.449 87.164C46.099 87.634 46.529 88.414 46.349 89.074C46.349 89.074 46.349 89.084 46.337 89.094C46.128 89.874 45.077 90.494 42.609 90.314C42.279 90.294 41.849 90.245 41.328 90.174C41.93 89.294 41.26 87.314 39.189 86.834C40.789 87.034 42.488 87.214 44.279 87.353C44.709 87.394 45.1 87.334 45.449 87.164Z" fill="#F25900"/>
<path d="M41.4389 115.554C40.7179 119.354 40.1189 122.554 39.7789 124.254C25.6089 124.983 13.3489 122.014 9.38789 120.943C5.43889 119.883 4.9879 116.834 5.2469 114.983C5.5089 113.133 7.44791 96.4831 8.15691 92.9541C8.86791 89.4141 11.7589 88.7731 14.1179 89.2941C16.4869 89.8041 38.2679 94.1541 41.8579 94.4341C45.0279 94.6841 45.6079 93.0751 45.7879 92.1151C45.6469 92.8851 45.4769 93.7741 45.2979 94.7551C44.5279 98.9151 43.4479 104.755 42.4289 110.234C42.0879 112.074 41.7479 113.874 41.4389 115.554ZM36.6389 107.494C36.6389 100.784 31.1989 95.3441 24.4979 95.3441C17.7889 95.3441 12.3499 100.784 12.3499 107.494C12.3499 114.204 17.7899 119.643 24.4979 119.643C31.1989 119.644 36.6389 114.204 36.6389 107.494Z" fill="#31363D"/>
<path d="M40.0489 64.0143C36.9879 66.1843 34.9979 69.7443 34.9979 73.7853C34.9979 77.7743 36.9489 81.3143 39.9489 83.4953C30.7789 82.3753 23.3979 79.2853 22.1189 78.7743C20.5099 78.1343 19.5589 76.7143 19.8379 75.3843C20.1289 74.0543 24.7289 60.5243 25.4879 59.3343C26.2479 58.1543 27.7179 57.9643 29.1379 59.0543C30.1889 59.8643 35.1479 62.4043 40.0489 64.0143Z" fill="#31363D"/>
<path d="M24.4981 95.3442C31.1991 95.3442 36.6391 100.784 36.6391 107.494C36.6391 114.204 31.1991 119.643 24.4981 119.643C17.7891 119.643 12.3501 114.204 12.3501 107.494C12.3501 100.784 17.7891 95.3442 24.4981 95.3442ZM33.7791 107.494C33.7791 102.364 29.6191 98.2142 24.4981 98.2142C19.3691 98.2142 15.2191 102.364 15.2191 107.494C15.2191 112.624 19.3691 116.773 24.4981 116.773C29.6191 116.773 33.7791 112.624 33.7791 107.494Z" fill="#FFAA00"/>
<path d="M24.4977 98.2139C29.6187 98.2139 33.7787 102.364 33.7787 107.494C33.7787 112.624 29.6187 116.773 24.4977 116.773C19.3687 116.773 15.2188 112.624 15.2188 107.494C15.2188 102.364 19.3687 98.2139 24.4977 98.2139ZM26.6288 109.624L30.5287 107.494L26.6288 105.364L24.4977 101.464L22.3588 105.364L18.4677 107.494L22.3588 109.624L24.4977 113.523L26.6288 109.624Z" fill="#31363D"/>
<path d="M30.5287 107.494L26.6288 109.624L24.4977 113.523L22.3588 109.624L18.4688 107.494L22.3588 105.364L24.4977 101.464L26.6288 105.364L30.5287 107.494Z" fill="#FFAA00"/>
</svg>
